<svg width="122" height="122" viewBox="0 0 122 122" fill="none" xmlns="http://www.w3.org/2000/svg">
<g clip-path="url(#clip0_6_18)">
<path d="M61 0C27.3128 0 0 27.3128 0 61C0 94.6923 27.3128 122 61 122C94.6873 122 122 94.6923 122 61C122 27.3128 94.6873 0 61 0ZM63.3129 10.9953C74.086 11.476 84.4123 15.4395 92.7403 22.2904L22.2853 92.7403C20.234 90.2398 18.4295 87.5467 16.897 84.6985L63.3129 10.9953ZM99.8672 29.4579C106.68 37.8294 110.59 48.1866 111.01 58.9718L37.5557 105.23C34.6905 103.709 31.9802 101.913 29.463 99.8672L99.8672 29.4579ZM109.927 71.6089C105.413 94.2298 81.3638 116.81 49.4354 109.703L109.927 71.6089Z" fill="#BEBEBE"/>
</g>
<defs>
<clipPath id="clip0_6_18">
<rect width="122" height="122" fill="white"/>
</clipPath>
</defs>
</svg>
