<svg width="107" height="107" viewBox="0 0 107 107" fill="none" xmlns="http://www.w3.org/2000/svg">
<path d="M93.4467 82.0333C89.1667 84.1733 83.46 82.7467 80.6067 78.4667L72.76 68.48H34.24L26.3933 78.4667C22.8267 83.46 16.4067 84.1733 11.4133 80.6067C7.84667 77.7533 6.42 73.4733 7.13334 69.9067L12.1267 43.5133C13.5533 34.9533 21.4 28.5333 29.96 28.5333H49.9333V17.8333C49.9333 12.1267 54.2133 7.13333 59.92 7.13333H82.0333C84.1733 7.13333 85.6 8.56 85.6 10.7C85.6 12.84 84.1733 14.2667 82.0333 14.2667H60.6333C58.4933 14.2667 57.0667 15.6933 57.0667 17.12V28.5333H77.04C85.6 28.5333 93.4467 34.9533 94.8733 43.5133L99.8667 69.9067C100.58 74.9 98.44 79.8933 93.4467 82.0333ZM42.8 46.3667C42.8 40.66 37.8067 35.6667 32.1 35.6667C26.3933 35.6667 21.4 40.66 21.4 46.3667C21.4 52.0733 26.3933 57.0667 32.1 57.0667C37.8067 57.0667 42.8 52.0733 42.8 46.3667ZM85.6 46.3667C85.6 44.2267 84.1733 42.8 82.0333 42.8H78.4667V39.2333C78.4667 37.0933 77.04 35.6667 74.9 35.6667C72.76 35.6667 71.3333 37.0933 71.3333 39.2333V42.8H67.7667C65.6267 42.8 64.2 44.2267 64.2 46.3667C64.2 48.5067 65.6267 49.9333 67.7667 49.9333H71.3333V53.5C71.3333 55.64 72.76 57.0667 74.9 57.0667C77.04 57.0667 78.4667 55.64 78.4667 53.5V49.9333H82.0333C84.1733 49.9333 85.6 48.5067 85.6 46.3667Z" fill="#BEBEBE"/>
</svg>
